<svg xmlns="http://www.w3.org/2000/svg" xmlns:xlink="http://www.w3.org/1999/xlink" version="1.1" id="Layer_1" x="0px" y="0px" width="636px" height="640px" viewBox="420 232 636 640" enable-background="new 420 232 636 640" xml:space="preserve"><style>.style0{fill:	#646466;}</style><path d="M444 368c16 16 32 24 56 24c20 0 40-8 56-24s24-32 24-56c0-20-8-40-24-56s-32-24-56-24c-20 0-40 8-56 24 c-16 20-24 36-24 56C420 336 428 352 444 368L444 368z M428 868c4 4 8 4 12 4h116c4 0 8 0 12-4s4-8 4-12V452c0-4 0-8-4-12s-8-4-12-4 H440c-4 0-8 0-12 4s-4 8-4 12v404C424 860 424 864 428 868z M636 868c4 4 8 4 12 4h116c4 0 8 0 12-4s4-8 4-12V636c0-28 4-52 16-68 s32-24 56-24c20 0 36 4 44 16s12 28 12 48v244c0 4 0 8 4 12s8 4 12 4h116c4 0 8 0 12-4s4-8 4-12V580c0-52-16-92-44-116 c-28-28-72-40-124-40c-48 0-84 12-116 40c0-4 0-4 0-8v-4c0-4 0-4 0-8s-4-8-4-8c-4 0-4-4-8-4H648c-4 0-8 0-12 4s-4 8-4 12v404 C632 860 636 864 636 868L636 868z" class="style0"/></svg>