<svg xmlns="http://www.w3.org/2000/svg" xmlns:xlink="http://www.w3.org/1999/xlink" version="1.1" id="Layer_1" x="0px" y="0px" width="21.364px" height="21.364px" viewBox="689.394 589.394 21.364 21.364" enable-background="new 689.394 589.394 21.364 21.364" xml:space="preserve"><style>.style0{fill:	#646466;}</style><path d="M700 589.394c-5.909 0-10.606 4.697-10.606 10.606c0 4.4 2.6 8 6.4 9.7 c0-0.758 0-1.667 0.151-2.425c0.151-0.909 1.363-5.757 1.363-5.757s-0.303-0.606-0.303-1.667c0-1.516 0.909-2.728 2.121-2.728 c0.909 0 1.4 0.8 1.4 1.667s-0.605 2.424-0.909 3.788c-0.303 1.1 0.6 2 1.7 1.97c1.97 0 3.334-2.576 3.334-5.606 c0-2.272-1.516-4.091-4.395-4.091c-3.182 0-5.151 2.424-5.151 5.151c0 0.9 0.3 1.5 0.8 2.1 c0.151 0.3 0.2 0.3 0.2 0.606c0 0.151-0.151 0.605-0.151 0.909c0 0.303-0.303 0.303-0.606 0.3 c-1.515-0.606-2.121-2.272-2.121-4.091c0-3.03 2.576-6.667 7.576-6.667c4.091 0 6.7 2.9 6.7 6.1 c0 4.091-2.272 7.272-5.757 7.272c-1.213 0-2.273-0.605-2.576-1.363c0 0-0.606 2.425-0.758 2.9 c-0.151 0.758-0.605 1.667-1.061 2.272c0.909 0.3 2 0.5 3 0.455c5.909 0 10.606-4.697 10.606-10.606 C710.606 594.1 705.9 589.4 700 589.394z" class="style0"/></svg>