<svg xmlns="http://www.w3.org/2000/svg" xmlns:xlink="http://www.w3.org/1999/xlink" version="1.1" id="Layer_1" x="0px" y="0px" width="21.061px" height="16.818px" viewBox="689.546 591.363 21.061 16.818" enable-background="new 689.546 591.363 21.061 16.818" xml:space="preserve"><style>.style0{fill:	#646466;}</style><path d="M710.606 593.484c-0.758 0.304-1.667 0.606-2.425 0.606c0.909-0.454 1.516-1.363 1.97-2.424 c-0.909 0.454-1.818 0.909-2.728 1.061c-0.757-0.758-1.969-1.364-3.182-1.364c-2.424 0-4.394 1.97-4.394 4.2 c0 0.3 0 0.6 0.2 0.909c-3.637-0.152-6.818-1.818-8.939-4.546c-0.303 0.606-0.605 1.363-0.605 2.1 c0 1.5 0.8 2.7 2 3.637c-0.757 0-1.363-0.151-1.969-0.606l0 0c0 2.1 1.5 3.8 3.5 4.2 c-0.303 0.152-0.758 0.152-1.212 0.152c-0.304 0-0.606 0-0.758-0.152c0.606 1.7 2.1 2.9 4.1 3 c-1.515 1.213-3.333 1.818-5.454 1.818c-0.304 0-0.758 0-1.061 0c1.97 1.2 4.2 2 6.7 2 c8.03 0 12.425-6.515 12.425-12.121c0-0.151 0-0.303 0-0.606C709.242 595.2 710 594.4 710.6 593.484z" class="style0"/></svg>