<svg xmlns="http://www.w3.org/2000/svg" xmlns:xlink="http://www.w3.org/1999/xlink" version="1.1" id="Layer_1" x="0px" y="0px" width="960px" height="834px" viewBox="220 210 960 834" enable-background="new 220 210 960 834" xml:space="preserve"><style>.style0{fill:	#646466;}</style><path d="M1180 360h-150V210h-60v150H820v60h150v150h60V420h150V360z" class="style0"/><path d="M643 690c-24-15-66-57-66-78c0-27 9-42 48-72c42-33 75-75 75-129c0-63-30-111-84-141h81l57-60 c0 0-189 0-252 0c-117 0-222 90-222 189c0 102 78 186 192 186c9 0 15 0 24 0c-6 15-12 30-12 48c0 27 15 51 33 69c-15 0-30 0-45 0 c-141 0-252 90-252 183c0 90 123 159 264 159c159 0 246-102 246-195C730 783 709 738 643 690z M508 564c-66-3-126-72-138-159 s33-150 99-150c66 3 129 72 141 156C619 498 574 567 508 564z M481 990c-96 0-168-54-168-129c0-72 87-132 183-132c24 0 45 3 63 9 c54 36 90 57 102 99c3 9 3 18 3 27C667 939 619 990 481 990z" class="style0"/></svg>