<svg xmlns="http://www.w3.org/2000/svg" xmlns:xlink="http://www.w3.org/1999/xlink" version="1.1" id="Layer_1" x="0px" y="0px" width="21.448px" height="18.545px" viewBox="689.091 590.707 21.448 18.545" enable-background="new 689.091 590.707 21.448 18.545" xml:space="preserve"><style>.style0{fill:	#646466;}</style><path d="M710.454 594.242c0.152-0.909 0.152-1.818-0.454-2.575c-0.758-0.909-2.424-1.061-3.484-0.909 c-0.909 0.151-3.939 1.515-5 4.849c1.817-0.152 2.9 0.2 2.6 2.272c0 0.909-0.454 1.818-1.061 2.7 c-0.606 1.061-1.667 3.182-3.03 1.666c-1.212-1.363-1.212-3.939-1.363-5.605c-0.152-0.909-0.304-2.122-0.606-3.183 c-0.303-0.908-0.909-1.817-1.667-2.121c-0.757-0.303-1.817 0.152-2.424 0.455c-1.818 1.061-3.182 2.727-4.849 3.939v0.151 c0.303 0.3 0.5 0.8 0.9 0.909c1.061 0.2 2.121-1.061 2.9 0.151c0.454 0.8 0.6 1.7 0.9 2.4 c0.454 1.1 0.6 2.3 1.1 3.637c0.454 2.1 1.2 5.3 3 6.061c0.909 0.5 2.272-0.151 3.03-0.606 c1.97-1.212 3.484-2.878 4.697-4.545C708.637 600 710.3 595.5 710.5 594.242z" class="style0"/></svg>