 <?xml version="1.0" encoding="utf-8"?>
              <!-- Generator: Adobe Illustrator 16.0.0, SVG Export Plug-In . SVG Version: 6.00 Build 0)  -->
              <!DOCTYPE svg PUBLIC "-//W3C//DTD SVG 1.1//EN" "http://www.w3.org/Graphics/SVG/1.1/DTD/svg11.dtd" [
                <!ENTITY ns_extend "http://ns.adobe.com/Extensibility/1.0/">
                <!ENTITY ns_ai "http://ns.adobe.com/AdobeIllustrator/10.0/">
                <!ENTITY ns_graphs "http://ns.adobe.com/Graphs/1.0/">
                <!ENTITY ns_vars "http://ns.adobe.com/Variables/1.0/">
                <!ENTITY ns_imrep "http://ns.adobe.com/ImageReplacement/1.0/">
                <!ENTITY ns_sfw "http://ns.adobe.com/SaveForWeb/1.0/">
                <!ENTITY ns_custom "http://ns.adobe.com/GenericCustomNamespace/1.0/">
                <!ENTITY ns_adobe_xpath "http://ns.adobe.com/XPath/1.0/">
                ]>
              <svg version="1.1" id="Layer_1" xmlns:x="&ns_extend;" xmlns:i="&ns_ai;" xmlns:graph="&ns_graphs;"
                xmlns="http://www.w3.org/2000/svg" xmlns:xlink="http://www.w3.org/1999/xlink" x="0px" y="0px" width="292px" height="228px"
                viewBox="-72.595 -37.936 292 228" enable-background="new -72.595 -37.936 292 228" xml:space="preserve">
                <path class="spiral" d="M76.137-23.213v0.002c-54.741,0-99.276,44.535-99.276,99.276c0,54.742,44.535,99.275,99.276,99.275v-0.001
                  c51.727,0,93.809-42.084,93.809-93.811c0-51.726-42.082-93.809-93.809-93.809v0.002c-48.712,0-88.343,39.631-88.343,88.343
                  c0,48.713,39.631,88.342,88.343,88.342v-0.003c45.697,0,82.876-37.179,82.876-82.876c0-45.699-37.179-82.877-82.876-82.877v0.003
                  c-42.685,0-77.411,34.726-77.411,77.411c0,42.684,34.726,77.409,77.411,77.409c39.669,0,71.943-32.274,71.943-71.945
                  c0-39.669-32.274-71.943-71.943-71.943v0.003c-36.656,0-66.479,29.821-66.479,66.476c0,36.656,29.823,66.478,66.479,66.478v-0.004
                  c33.643,0,61.011-27.368,61.011-61.011c0-33.642-27.368-61.012-61.011-61.012c-30.629,0-55.547,24.917-55.547,55.547
                  c0,30.63,24.918,55.549,55.547,55.549c27.614,0,50.082-22.468,50.082-50.081c0-27.615-22.468-50.081-50.082-50.081v-0.003
                  c-24.602,0-44.617,20.015-44.617,44.616c0,24.6,20.015,44.615,44.617,44.615v0.003c21.587,0,39.149-17.562,39.149-39.149
                  s-17.563-39.15-39.149-39.15c-18.579,0-33.694,15.114-33.694,33.692c0,18.58,15.115,33.693,33.694,33.693
                  c15.564,0,28.227-12.662,28.227-28.226c0-15.564-12.662-28.227-28.227-28.227v-0.002c-12.545,0-22.751,10.206-22.751,22.751
                  c0,12.543,10.206,22.75,22.751,22.75v0.001c9.53,0,17.285-7.752,17.285-17.282s-7.755-17.283-17.285-17.283v-0.002
                  c-6.517,0-11.82,5.301-11.82,11.817c0,6.516,5.303,11.817,11.82,11.817v-1.771c-5.541,0-10.049-4.507-10.049-10.045
                  c0-5.539,4.508-10.044,10.049-10.044v0.001c8.553,0,15.514,6.958,15.514,15.511c0,8.553-6.961,15.511-15.514,15.511v-0.001
                  c-11.568,0-20.979-9.41-20.979-20.978c0-11.568,9.411-20.979,20.979-20.979v0.002c14.587,0,26.455,11.868,26.455,26.456
                  c0,14.586-11.868,26.454-26.455,26.454c-17.603,0-31.922-14.319-31.922-31.922c0-17.601,14.32-31.92,31.922-31.92
                  c20.609,0,37.378,16.768,37.378,37.378c0,20.609-16.769,37.378-37.378,37.378v-0.003c-23.625,0-42.845-19.221-42.845-42.843
                  c0-23.625,19.22-42.844,42.845-42.844v0.003c26.639,0,48.311,21.672,48.311,48.31s-21.672,48.31-48.311,48.31
                  c-29.652,0-53.775-24.125-53.775-53.778c0-29.652,24.124-53.775,53.775-53.775c32.665,0,59.239,26.575,59.239,59.241
                  c0,32.665-26.574,59.239-59.239,59.239v0.004c-35.679,0-64.707-29.028-64.707-64.707S40.458,11.36,76.137,11.36v-0.003
                  c38.691,0,70.172,31.479,70.172,70.171c0,38.694-31.48,70.174-70.172,70.174c-41.707,0-75.639-33.931-75.639-75.637
                  c0-41.707,33.932-75.639,75.639-75.639V0.422c44.722,0,81.104,36.384,81.104,81.106s-36.383,81.104-81.104,81.104v0.003
                  c-47.736,0-86.572-38.835-86.572-86.571s38.836-86.571,86.572-86.571v-0.002c50.749,0,92.037,41.288,92.037,92.037
                  s-41.288,92.039-92.037,92.039v0.001c-53.765,0-97.504-43.739-97.504-97.503c0-53.765,43.74-97.504,97.504-97.504v-0.002
                  c56.777,0,102.97,46.193,102.97,102.97c0,56.777-46.192,102.97-102.97,102.97v0.002c-59.791,0-108.435-48.645-108.435-108.435
                  c0-59.792,48.644-108.437,108.435-108.437v-1.771C15.369-34.144-34.07,15.295-34.07,76.064c0,60.768,49.438,110.207,110.207,110.207
                  v-0.002c57.755,0,104.741-46.986,104.741-104.741C180.878,23.773,133.892-23.213,76.137-23.213z"/>
              </svg>